<svg xmlns="http://www.w3.org/2000/svg" width="450" height="450" viewBox="0 0 450 450">
  <defs>
    <style>
      .cls-1 {
        fill: gray;
        fill-rule: evenodd;
      }
    </style>
  </defs>
  <path id="_Kopie" data-name="© Kopie" class="cls-1" d="M123.282,45.079q-48.61,26.587-76.4,75.867t-27.8,103.259q0,53.715,27.258,102.454a193.876,193.876,0,0,0,76,76q48.742,27.253,102.454,27.258T327.25,402.66a193.9,193.9,0,0,0,76-76q27.255-48.743,27.259-102.454,0-53.979-27.8-103.259t-76.4-75.867Q277.7,18.492,224.8,18.492T123.282,45.079ZM306.3,80.26q39.075,21.218,61.365,60.962t22.29,82.983q0,42.97-21.887,82.178a155.437,155.437,0,0,1-61.1,61.1Q267.761,389.37,224.8,389.366t-82.178-21.887a155.385,155.385,0,0,1-61.1-61.1q-21.891-39.207-21.887-82.178,0-43.506,22.29-83.118T143.29,80.26Q182.364,59.048,224.8,59.044T306.3,80.26ZM254.337,290.135q-13.161,10.612-31.152,10.608-21.489,0-36.792-18.53t-15.308-57.739q0-39.207,15.576-57.6t40.015-18.4q16.377,0,28.332,8.862T274.479,185.8l43.505-10.2q-12.355-33.838-34.509-49.549t-55.188-15.71q-30.079,0-54.382,13.428T136.71,164.317q-12.891,27.129-12.891,61.768,0,52.91,29,82.983t74.927,30.078q32.762,0,56.4-17.993t33.838-51.831l-43.237-14.5Q267.5,279.531,254.337,290.135Z"/>
</svg>
